<svg width="339" height="77" viewBox="0 0 339 77" fill="none" xmlns="http://www.w3.org/2000/svg">
<path d="M61.376 45.368C61.376 48.44 60.416 51.064 58.496 53.24C56.576 55.416 53.5467 57.08 49.408 58.232C45.2693 59.384 39.8933 59.96 33.28 59.96C26.6667 59.96 21.0347 59.4267 16.384 58.36C11.776 57.2933 8.256 55.544 5.824 53.112C3.43467 50.68 2.24 47.4373 2.24 43.384C2.24 39.3307 3.43467 36.088 5.824 33.656C8.256 31.1813 11.776 29.4107 16.384 28.344C21.0347 27.2347 26.6667 26.68 33.28 26.68C39.8933 26.68 45.248 27.256 49.344 28.408C53.44 29.56 56.448 31.224 58.368 33.4C60.288 35.576 61.2693 38.1787 61.312 41.208H47.232C46.5493 39.544 45.0133 38.264 42.624 37.368C40.2347 36.4293 37.12 35.96 33.28 35.96C30.1653 35.96 27.456 36.1947 25.152 36.664C22.848 37.0907 21.056 37.8373 19.776 38.904C18.5387 39.9707 17.92 41.464 17.92 43.384C17.92 45.2613 18.5387 46.7333 19.776 47.8C21.0133 48.8667 22.784 49.6133 25.088 50.04C27.392 50.4667 30.1227 50.68 33.28 50.68C37.12 50.68 40.2347 50.232 42.624 49.336C45.056 48.3973 46.6133 47.0747 47.296 45.368H61.376Z" fill="white"/>
<path d="M175.992 59H160.632V27.64H175.992V59ZM161.272 42.808L161.4 45.88C161.272 46.776 160.845 47.8213 160.12 49.016C159.437 50.2107 158.477 51.448 157.24 52.728C156.003 54.008 154.488 55.2027 152.696 56.312C150.904 57.3787 148.856 58.2533 146.552 58.936C144.248 59.6187 141.688 59.96 138.872 59.96C136.056 59.96 133.389 59.6613 130.872 59.064C128.355 58.5093 126.115 57.5707 124.152 56.248C122.189 54.9253 120.653 53.1547 119.544 50.936C118.435 48.6747 117.88 45.8587 117.88 42.488V27.64H133.24V40.888C133.24 43.2347 133.624 45.048 134.392 46.328C135.203 47.608 136.461 48.504 138.168 49.016C139.875 49.4853 142.072 49.72 144.76 49.72C147.277 49.72 149.603 49.3573 151.736 48.632C153.912 47.864 155.811 46.9467 157.432 45.88C159.096 44.8133 160.376 43.7893 161.272 42.808ZM181.755 27.64H197.115V59H181.755V27.64ZM213.627 39.48C210.854 39.48 208.315 39.736 206.011 40.248C203.707 40.76 201.744 41.3787 200.123 42.104C198.502 42.7867 197.286 43.4693 196.475 44.152L196.347 41.08C196.475 40.184 196.816 39.1387 197.371 37.944C197.926 36.7067 198.672 35.448 199.611 34.168C200.55 32.8453 201.702 31.6293 203.067 30.52C204.432 29.368 205.99 28.4507 207.739 27.768C209.531 27.0427 211.494 26.68 213.627 26.68V39.48ZM216.843 27.64H254.475V37.24H216.843V27.64ZM227.979 18.04H243.339V59H227.979V18.04ZM259.59 14.84H274.95V59H259.59V14.84ZM279.133 27.64H295.453L314.141 57.72L300.893 59L279.133 27.64ZM338.013 27.64L306.845 71.8H291.165L304.541 53.688L321.693 27.64H338.013Z" fill="white"/>
<path d="M100.751 19.8803C105.588 22.5488 108.991 26.6758 110.713 31.3432C104.477 32.4561 98.7672 36.0639 95.3463 41.7258C91.9256 47.3872 91.5118 53.9148 93.6209 59.6319C88.5293 60.5407 83.087 59.7897 78.2494 57.121C73.4119 54.4521 70.0101 50.3242 68.288 45.6563C74.524 44.543 80.2335 40.9369 83.6541 35.2755C87.075 29.6138 87.4901 23.0849 85.3806 17.3676C90.4718 16.4591 95.9138 17.2118 100.751 19.8803ZM81.0557 18.5748C82.8381 23.2014 82.5382 28.522 79.7568 33.1254C76.9756 37.7283 72.3036 40.6352 67.2197 41.4738C66.5466 36.8911 67.4042 32.0684 70.0133 27.7502C72.6228 23.4315 76.5651 20.309 81.0557 18.5748ZM111.78 35.5247C112.454 40.1082 111.597 44.932 108.987 49.2511C106.378 53.5697 102.434 56.6893 97.9439 58.4236C96.1627 53.7976 96.4628 48.4783 99.2436 43.8758C102.025 39.2729 106.696 36.3634 111.78 35.5247Z" fill="#C8DF2A"/>
</svg>